<svg width="9" height="9" viewBox="0 0 9 9" fill="none" xmlns="http://www.w3.org/2000/svg">
<path fill-rule="evenodd" clip-rule="evenodd" d="M8.78039 1.28039L1.28039 8.78039L0.219727 7.71973L7.71973 0.219727L8.78039 1.28039Z" fill="#F66E1F"/>
<path d="M3.75 1.875C3.75 2.91053 2.91053 3.75 1.875 3.75C0.839466 3.75 0 2.91053 0 1.875C0 0.839466 0.839466 0 1.875 0C2.91053 0 3.75 0.839466 3.75 1.875Z" fill="#F66E1F"/>
<path d="M9 7.125C9 8.16053 8.16053 9 7.125 9C6.08947 9 5.25 8.16053 5.25 7.125C5.25 6.08947 6.08947 5.25 7.125 5.25C8.16053 5.25 9 6.08947 9 7.125Z" fill="#F66E1F"/>
</svg>
